<svg xmlns="http://www.w3.org/2000/svg" viewBox="0 0 256 256"><rect width="256" height="256" rx="56.32" fill="#0a0a0a"/><g fill="#fafafa"><circle cx="58.37" cy="58.37" r="13.93"/><circle cx="93.18" cy="58.37" r="13.93" fill-opacity=".22"/><circle cx="128.00" cy="58.37" r="13.93" fill-opacity=".22"/><circle cx="162.82" cy="58.37" r="13.93" fill-opacity=".22"/><circle cx="197.63" cy="58.37" r="13.93"/><circle cx="58.37" cy="93.18" r="13.93" fill-opacity=".22"/><circle cx="93.18" cy="93.18" r="13.93"/><circle cx="128.00" cy="93.18" r="13.93" fill-opacity=".22"/><circle cx="162.82" cy="93.18" r="13.93" fill-opacity=".22"/><circle cx="197.63" cy="93.18" r="13.93"/><circle cx="58.37" cy="128.00" r="13.93" fill-opacity=".22"/><circle cx="93.18" cy="128.00" r="13.93" fill-opacity=".22"/><circle cx="128.00" cy="128.00" r="13.93"/><circle cx="162.82" cy="128.00" r="13.93" fill-opacity=".22"/><circle cx="197.63" cy="128.00" r="13.93"/><circle cx="58.37" cy="162.82" r="13.93" fill-opacity=".22"/><circle cx="93.18" cy="162.82" r="13.93"/><circle cx="128.00" cy="162.82" r="13.93" fill-opacity=".22"/><circle cx="162.82" cy="162.82" r="13.93" fill-opacity=".22"/><circle cx="197.63" cy="162.82" r="13.93"/><circle cx="58.37" cy="197.63" r="13.93"/><circle cx="93.18" cy="197.63" r="13.93" fill-opacity=".22"/><circle cx="128.00" cy="197.63" r="13.93" fill-opacity=".22"/><circle cx="162.82" cy="197.63" r="13.93" fill-opacity=".22"/><circle cx="197.63" cy="197.63" r="13.93"/></g></svg>
